{"title":"HEARTBREAK RIDGE IN H.264 BY WINKER","uid":5123348,"size":1051766778,"categoryP":"video","categoryS":"movies","magnet":"?xt=urn:btih:85052333602616b77e34ae5a82ccb4f4922e7793&amp;dn=HEARTBREAK+RIDGE+IN+H.264+BY+WINKER&amp;tr=udp%3A%2F%2Ftracker.openbittorrent.com%3A80&amp;tr=udp%3A%2F%2Fopen.demonii.com%3A1337&amp;tr=udp%3A%2F%2Ftracker.coppersurfer.tk%3A6969&amp;tr=udp%3A%2F%2Fexodus.desync.com%3A6969","seeders":0,"leechers":1,"uploader":"alanwatson","files":-1,"time":1255471745,"description":"Heartbreak Ridge (1986) is a comedy drama war movie starring Clint Eastwood, Everett McGill, Bo Svenson and Mario Van Peebles.\n\nThe plot revolves around tough career Marine and combat veteran Gunnery Sergeant Thomas Highway (Eastwood) who uses his traditionalist training methods on a ragtag bunch of misfits in an attempt to turn them into a fighting unit.\n\nEastwood really has a good time in this movie and his performance is superb. His character spits out sharp vicious dialogue and despite his advancing age (Eastwood was 56 when he made this movie) he still looked tougher then all the younger actors playing the trainees.\n\n\n\nFormat : MPEG-4\nFormat profile : Base Media / Version 2\nCodec ID : mp42\nFile size : 1 000 MiB\nDuration : 2h 4mn\nOverall bit rate : 1 122 Kbps\nEncoded date : UTC 2009-10-06 11:12:16\nTagged date : UTC 2009-10-06 18:32:43\nWriting application : HandBrake 0.9.3 2008112300\n\nVideo\nID : 1\nFormat : AVC\nFormat/Info : Advanced Video Codec\nFormat profile : &lt;a class=&quot;__cf_email__&quot; href=&quot;/cdn-cgi/l/email-protection&quot; data-cfemail=&quot;0e436f67604e423a203e&quot;&gt;[email&amp;#160;protected]&lt;/a&gt;&lt;script cf-hash='f9e31' type=&quot;text/javascript&quot;&gt;\n/* &lt;![CDATA[ */!function(){try{var t=&quot;currentScript&quot;in document?document.currentScript:function(){for(var t=document.getElementsByTagName(&quot;script&quot;),e=t.length;e--;)if(t[e].getAttribute(&quot;cf-hash&quot;))return t[e]}();if(t&amp;&amp;t.previousSibling){var e,r,n,i,c=t.previousSibling,a=c.getAttribute(&quot;data-cfemail&quot;);if(a){for(e=&quot;&quot;,r=parseInt(a.substr(0,2),16),n=2;a.length-n;n+=2)i=parseInt(a.substr(n,2),16)^r,e+=String.fromCharCode(i);e=document.createTextNode(e),c.parentNode.replaceChild(e,c)}}}catch(u){}}();/* ]]&gt; */&lt;/script&gt;\nFormat settings, CABAC : Yes\nFormat settings, ReFrames : 3 frames\nCodec ID : avc1\nCodec ID/Info : Advanced Video Coding\nDuration : 2h 4mn\nBit rate mode : Variable\nBit rate : 958 Kbps\nWidth : 720 pixels\nHeight : 576 pixels\nDisplay aspect ratio : 16:9\nFrame rate mode : Variable\nFrame rate : 25.000 fps\nMinimum frame rate : 12.500 fps\nMaximum frame rate : 25.000 fps\nStandard : PAL\nResolution : 24 bits\nColorimetry : 4:2:0\nScan type : Progressive\nBits/(Pixel*Frame) : 0.092\nStream size : 854 MiB (85%)\nWriting library : x264 core 65\n\n\nAudio\nID : 2\nFormat : AAC\nFormat/Info : Advanced Audio Codec\nFormat version : Version 4\nFormat profile : LC\nFormat settings, SBR : No\nCodec ID : 40\nDuration : 2h 4mn\nBit rate mode : Variable\nBit rate : 160 Kbps\nMaximum bit rate : 240 Kbps\nChannel(s) : 2 channels\nChannel positions : L R\nSampling rate : 48.0 KHz\nResolution : 16 bits\nStream size : 143 MiB (14%)\nLanguage : English\nEncoded date : UTC 2009-10-06 11:12:16\nTagged date : UTC 2009-10-06 18:32:35\n\n\n","torrent":{"xt":"urn:btih:85052333602616b77e34ae5a82ccb4f4922e7793","amp;dn":"HEARTBREAK+RIDGE+IN+H.264+BY+WINKER","amp;tr":["udp%3A%2F%2Ftracker.openbittorrent.com%3A80","udp%3A%2F%2Fopen.demonii.com%3A1337","udp%3A%2F%2Ftracker.coppersurfer.tk%3A6969","udp%3A%2F%2Fexodus.desync.com%3A6969"],"infoHash":"85052333602616b77e34ae5a82ccb4f4922e7793","infoHashBuffer":{"type":"Buffer","data":[133,5,35,51,96,38,22,183,126,52,174,90,130,204,180,244,146,46,119,147]},"announce":[],"urlList":[]}}